<?xml version="1.0" standalone="no"?>
<!DOCTYPE svg PUBLIC "-//W3C//DTD SVG 20010904//EN"
 "http://www.w3.org/TR/2001/REC-SVG-20010904/DTD/svg10.dtd">
<svg version="1.0" xmlns="http://www.w3.org/2000/svg"
 width="25.000000pt" height="25.000000pt" viewBox="0 0 25.000000 25.000000"
 preserveAspectRatio="xMidYMid meet">

<g transform="translate(0.000000,25.000000) scale(0.100000,-0.100000)"
fill="#000000" stroke="none">
<path d="M93 218 c-18 -5 -40 -20 -49 -33 -19 -28 -21 -83 -5 -114 37 -68 159
-53 179 23 10 34 0 83 -21 103 -21 21 -69 31 -104 21z m47 -59 c0 -19 -5 -29
-15 -29 -15 0 -22 50 -9 63 12 12 24 -4 24 -34z m-55 -18 c-6 -30 14 -61 40
-61 26 0 46 31 40 61 -8 35 12 40 24 7 10 -28 4 -52 -20 -74 -51 -46 -132 9
-108 74 12 33 32 28 24 -7z"/>
</g>
</svg>
