<?xml version="1.0" encoding="UTF-8"?>
<svg version="1.1" xmlns="http://www.w3.org/2000/svg" width="330" height="329">
<path d="M0 0 C1.23878906 0.44085938 2.47757813 0.88171875 3.75390625 1.3359375 C24.98471968 9.1979731 42.80004361 22.39911749 59 38 C59.64066406 38.58910156 60.28132813 39.17820313 60.94140625 39.78515625 C84.60158094 62.12782701 98.93223454 95.3173512 104 127 C104.18433594 128.14339844 104.36867188 129.28679687 104.55859375 130.46484375 C105.34549937 137.06456977 105.2443733 143.73721227 105.25 150.375 C105.25067474 151.08964417 105.25134949 151.80428833 105.25204468 152.54058838 C105.23544574 163.6153394 104.67164689 174.21781193 102 185 C101.82307617 185.73814941 101.64615234 186.47629883 101.46386719 187.23681641 C91.02866421 229.94184827 65.05061461 265.75218506 27.64453125 288.84375 C2.44209176 303.96385397 -25.47410044 311.47710241 -54.8125 311.3125 C-55.51065826 311.31034485 -56.20881653 311.3081897 -56.9281311 311.30596924 C-67.86407904 311.25199691 -78.36239671 310.67910009 -89 308 C-89.82999512 307.79600586 -90.65999023 307.59201172 -91.51513672 307.38183594 C-121.64857791 299.80574295 -146.55467995 285.34961656 -169 264 C-169.96679688 263.11248047 -169.96679688 263.11248047 -170.953125 262.20703125 C-194.89643044 239.55039877 -209.05093834 206.04428416 -214 174 C-214.17200928 172.9179126 -214.34401855 171.8358252 -214.52124023 170.72094727 C-215.33454157 164.39992448 -215.24381896 158.05106529 -215.25 151.6875 C-215.25100708 150.97102295 -215.25201416 150.2545459 -215.25305176 149.51635742 C-215.24247611 138.39451062 -214.52944482 127.85142778 -212 117 C-211.72869767 115.67874785 -211.45917628 114.3571288 -211.19140625 113.03515625 C-206.71048786 92.10106648 -196.40954187 70.65221291 -183 54 C-182.59555664 53.49549316 -182.19111328 52.99098633 -181.77441406 52.47119141 C-138.13703864 -1.59121539 -66.0991617 -23.72079045 0 0 Z " fill="#273A79" transform="translate(220,14)"/>
<path d="M0 0 C0.99 0.66 1.98 1.32 3 2 C3 2.66 3 3.32 3 4 C3.99 4.33 4.98 4.66 6 5 C6 5.66 6 6.32 6 7 C6.99 7.33 7.98 7.66 9 8 C10.6484375 9.671875 10.6484375 9.671875 12.375 11.75 C15.10118337 15.01146139 17.97162219 18.01576763 21 21 C22.05291945 22.05124655 23.10495932 23.10337461 24.15625 24.15625 C24.70410156 24.70410156 25.25195312 25.25195312 25.81640625 25.81640625 C27.4921875 27.4921875 29.16796875 29.16796875 30.84375 30.84375 C31.37734131 31.37661621 31.91093262 31.90948242 32.46069336 32.45849609 C33.88656879 33.88640687 35.30494523 35.32179531 36.72265625 36.7578125 C39.03442936 39.10681913 39.03442936 39.10681913 41.9375 41.375 C44.8483752 43.74848285 47.17379098 46.43446773 49.57421875 49.3125 C52.733339 53.05151356 56.29066986 56.26303581 60 59.4375 C63.39433575 62.36954749 66.12654644 65.55185573 69 69 C70.33461873 70.2298901 71.69025495 71.43723725 73.0625 72.625 C73.74183594 73.21667969 74.42117188 73.80835938 75.12109375 74.41796875 C76.57857456 75.64516153 78.0920272 76.80602008 79.625 77.9375 C81 80 81 80 80.625 83.3125 C80.12491228 84.88879988 79.57474472 86.44936222 79 88 C78.38705078 89.66482422 78.38705078 89.66482422 77.76171875 91.36328125 C62.3139569 132.03682361 31.96386427 164.99738655 -7.76074219 183.04150391 C-22.96885924 189.55121472 -38.42948708 194.22492762 -55 195 C-54.01 194.34 -53.02 193.68 -52 193 C-52.495 192.54625 -52.99 192.0925 -53.5 191.625 C-55 190 -55 190 -55 188 C-56.32 187.67 -57.64 187.34 -59 187 C-59 186.34 -59 185.68 -59 185 C-59.59167969 184.73445312 -60.18335938 184.46890625 -60.79296875 184.1953125 C-63.06162523 182.96662421 -64.51847605 181.71612243 -66.3125 179.875 C-66.91449219 179.25753906 -67.51648438 178.64007813 -68.13671875 178.00390625 C-70.01799659 175.98064518 -71.82615916 173.90918812 -73.625 171.8125 C-76.20155869 168.81610027 -78.89487426 166.45141505 -82 164 C-83.67067133 162.00334402 -85.33752986 160.00348966 -87 158 C-88.32901064 156.99426222 -89.66073801 155.99204592 -91 155 C-91 154.34 -91 153.68 -91 153 C-91.99 152.67 -92.98 152.34 -94 152 C-94 151.34 -94 150.68 -94 150 C-94.99 149.67 -95.98 149.34 -97 149 C-97 148.34 -97 147.68 -97 147 C-97.66 147 -98.32 147 -99 147 C-99 146.34 -99 145.68 -99 145 C-99.99 144.67 -100.98 144.34 -102 144 C-103.71108689 142.37897032 -105.37253306 140.70496537 -107 139 C-107.825 138.175 -108.65 137.35 -109.5 136.5 C-110.325 135.675 -111.15 134.85 -112 134 C-112.804375 133.21625 -113.60875 132.4325 -114.4375 131.625 C-116.386061 129.62891312 -118.15973167 127.63887752 -119.9375 125.5 C-121.93023993 123.12423992 -123.95112817 121.12089423 -126.375 119.1875 C-127.24125 118.465625 -128.1075 117.74375 -129 117 C-129 116.34 -129 115.68 -129 115 C-129.66 115 -130.32 115 -131 115 C-131 114.34 -131 113.68 -131 113 C-132.485 112.505 -132.485 112.505 -134 112 C-134 111.34 -134 110.68 -134 110 C-135.485 109.505 -135.485 109.505 -137 109 C-137 108.34 -137 107.68 -137 107 C-137.66 107 -138.32 107 -139 107 C-139 106.34 -139 105.68 -139 105 C-139.58910156 104.73832031 -140.17820312 104.47664063 -140.78515625 104.20703125 C-143.11785434 102.9357725 -144.60354368 101.59769469 -146.4375 99.6875 C-147.04207031 99.06359375 -147.64664063 98.4396875 -148.26953125 97.796875 C-148.84058594 97.20390625 -149.41164063 96.6109375 -150 96 C-150.86625 95.154375 -151.7325 94.30875 -152.625 93.4375 C-155.25565988 90.73761223 -157.60635539 87.91118939 -160 85 C-160.66 84.34 -161.32 83.68 -162 83 C-131.64 83 -101.28 83 -70 83 C-69.505 91.91 -69.505 91.91 -69 101 C-67.52360997 106.06008639 -67.52360997 106.06008639 -64 108 C-60.68958447 108.31301988 -60.68958447 108.31301988 -56.83813477 108.2746582 C-56.11260406 108.27976913 -55.38707336 108.28488007 -54.63955688 108.29014587 C-52.24008953 108.30405124 -49.84090912 108.30308442 -47.44140625 108.30078125 C-45.77375685 108.3046677 -44.10610843 108.30900227 -42.4384613 108.31376648 C-38.94225863 108.32123074 -35.44615693 108.32093597 -31.94995117 108.31567383 C-27.46962224 108.30987925 -22.98970672 108.32680871 -18.50944614 108.3500185 C-15.06505415 108.3647506 -11.62076183 108.36562826 -8.17634392 108.36250877 C-6.52452717 108.36302226 -4.87270488 108.36826521 -3.22091866 108.37832069 C-0.91075915 108.39065775 1.39859364 108.38391045 3.70874023 108.37231445 C5.68039406 108.37325859 5.68039406 108.37325859 7.69187927 108.3742218 C11.19721195 107.97769096 12.61493206 107.56309358 15 105 C16.28432131 101.83300328 16.13862344 98.57959218 16.16113281 95.19335938 C16.17074036 94.0253479 16.1803479 92.85733643 16.19024658 91.65393066 C16.19449646 90.39657104 16.19874634 89.13921143 16.203125 87.84375 C16.20882507 86.54932983 16.21452515 85.25490967 16.22039795 83.92126465 C16.23088426 81.18432219 16.23674306 78.44740892 16.24023438 75.71044922 C16.24572816 72.20653375 16.2697844 68.70300508 16.29820633 65.19921112 C16.32131894 61.85156461 16.32328048 58.50397219 16.328125 55.15625 C16.3466452 53.27021057 16.3466452 53.27021057 16.36553955 51.34606934 C16.3610379 49.59405212 16.3610379 49.59405212 16.35644531 47.80664062 C16.36009094 46.77945923 16.36373657 45.75227783 16.36749268 44.69396973 C15.94501102 41.59689359 15.15645175 40.23115975 13 38 C10.73699105 37.3078631 10.73699105 37.3078631 8.3125 37.25 C7.50425781 37.19328125 6.69601563 37.1365625 5.86328125 37.078125 C5.24839844 37.05234375 4.63351563 37.0265625 4 37 C3.98018066 36.31486328 3.96036133 35.62972656 3.93994141 34.92382812 C3.84395322 31.78220389 3.73457599 28.6411785 3.625 25.5 C3.57859375 23.88351563 3.57859375 23.88351563 3.53125 22.234375 C3.3098104 16.18169259 2.70626025 10.81194899 1 5 C0.65334443 3.33605325 0.31323028 1.67056149 0 0 Z " fill="#121149" transform="translate(238,129)"/>
<path d="M0 0 C6.12182203 3.76128896 10.89151364 10.14741934 13 17 C13.77573122 20.99878061 14.11953922 24.76570562 14.09765625 28.8359375 C14.09443359 29.89941406 14.09121094 30.96289062 14.08789062 32.05859375 C14.07951172 33.15300781 14.07113281 34.24742187 14.0625 35.375 C14.05798828 36.49261719 14.05347656 37.61023438 14.04882812 38.76171875 C14.03709244 41.50786804 14.02067363 44.25390586 14 47 C14.90492188 46.91298828 14.90492188 46.91298828 15.828125 46.82421875 C16.62734375 46.77910156 17.4265625 46.73398438 18.25 46.6875 C19.03890625 46.62949219 19.8278125 46.57148438 20.640625 46.51171875 C24.15198488 47.23840747 25.05582801 49.06913685 27 52 C27.49447632 54.80749512 27.49447632 54.80749512 27.48583984 57.90429688 C27.49506973 59.65135925 27.49506973 59.65135925 27.50448608 61.43371582 C27.48292953 63.30730774 27.48292953 63.30730774 27.4609375 65.21875 C27.46002106 66.50938354 27.45910461 67.80001709 27.4581604 69.12976074 C27.45503909 71.85674707 27.43852725 74.58320515 27.41162109 77.31005859 C27.37764179 80.79700672 27.36999296 84.28337535 27.37151146 87.77046967 C27.37083532 91.10747337 27.3531488 94.44428895 27.3359375 97.78125 C27.33371185 99.03031128 27.33148621 100.27937256 27.32919312 101.56628418 C27.31643341 102.73099243 27.30367371 103.89570068 27.29052734 105.09570312 C27.28290375 106.11764771 27.27528015 107.13959229 27.26742554 108.19250488 C26.89019396 112.15276919 26.0708194 114.85551405 23.32872009 117.78625488 C20.05749015 119.49124269 17.42222483 119.39623093 13.74047852 119.41992188 C12.65437286 119.43262619 12.65437286 119.43262619 11.54632568 119.44558716 C9.15700634 119.4689525 6.76833112 119.46997949 4.37890625 119.46875 C2.71508019 119.47585182 1.05125658 119.48355085 -0.61256409 119.49182129 C-4.09863087 119.50526494 -7.58447119 119.50683541 -11.07055664 119.50097656 C-15.53421528 119.49508005 -19.99678637 119.52566949 -24.46023464 119.56609344 C-27.89612159 119.59196434 -31.33174644 119.59484847 -34.76771736 119.59120178 C-36.4131449 119.59289358 -38.05858447 119.60254195 -39.70391655 119.62034607 C-42.00704251 119.64252603 -44.30796447 119.63284203 -46.61108398 119.61523438 C-47.92028305 119.61728882 -49.22948212 119.61934326 -50.57835388 119.62145996 C-54.86993049 118.84199799 -56.32408253 117.37442657 -59 114 C-61.21610269 107.35169194 -60 100.00793201 -60 93 C-90.36 93 -120.72 93 -152 93 C-152 74.9224114 -145.34540384 59.47167615 -132.875 46.3125 C-118.31035597 32.42159461 -102.51709506 27.2006954 -82.80249023 27.40795898 C-69.16636904 27.90320713 -58.36214543 32.65798051 -47 40 C-47.02320313 39.02160156 -47.04640625 38.04320312 -47.0703125 37.03515625 C-47.24019302 24.69454991 -46.55806147 13.68004303 -37.75 4.25 C-27.03854562 -5.86124357 -12.87807029 -6.39722323 0 0 Z " fill="#FC7E4F" transform="translate(228,119)"/>
<path d="M0 0 C6.12182203 3.76128896 10.89151364 10.14741934 13 17 C13.77573122 20.99878061 14.11953922 24.76570562 14.09765625 28.8359375 C14.09282227 30.43115234 14.09282227 30.43115234 14.08789062 32.05859375 C14.07532227 33.70021484 14.07532227 33.70021484 14.0625 35.375 C14.05798828 36.49261719 14.05347656 37.61023438 14.04882812 38.76171875 C14.03709244 41.50786804 14.02067363 44.25390586 14 47 C14.60328125 46.94199219 15.2065625 46.88398438 15.828125 46.82421875 C16.62734375 46.77910156 17.4265625 46.73398438 18.25 46.6875 C19.03890625 46.62949219 19.8278125 46.57148438 20.640625 46.51171875 C24.15198488 47.23840747 25.05582801 49.06913685 27 52 C27.49447632 54.80749512 27.49447632 54.80749512 27.48583984 57.90429688 C27.49506973 59.65135925 27.49506973 59.65135925 27.50448608 61.43371582 C27.49011505 62.6827771 27.47574402 63.93183838 27.4609375 65.21875 C27.46002106 66.50938354 27.45910461 67.80001709 27.4581604 69.12976074 C27.45503909 71.85674707 27.43852725 74.58320515 27.41162109 77.31005859 C27.37764179 80.79700672 27.36999296 84.28337535 27.37151146 87.77046967 C27.37083532 91.10747337 27.3531488 94.44428895 27.3359375 97.78125 C27.33371185 99.03031128 27.33148621 100.27937256 27.32919312 101.56628418 C27.31643341 102.73099243 27.30367371 103.89570068 27.29052734 105.09570312 C27.27909195 106.62862 27.27909195 106.62862 27.26742554 108.19250488 C26.89019921 112.15271404 26.06654732 114.8535134 23.3336792 117.79121399 C20.12548176 119.45297803 17.18737874 119.39594396 13.66113281 119.34057617 C12.56297997 119.34123329 12.56297997 119.34123329 11.44264221 119.34190369 C9.02919601 119.33981808 6.61644944 119.31649855 4.203125 119.29296875 C2.52732727 119.28737197 0.85152462 119.28310226 -0.82427979 119.28010559 C-5.23026127 119.26866325 -9.63594504 119.23920143 -14.04180908 119.20599365 C-18.5395505 119.17527955 -23.03734013 119.16159739 -27.53515625 119.14648438 C-36.35690148 119.11433107 -45.17842596 119.06314215 -54 119 C-54 118.67 -54 118.34 -54 118 C-41.79 118 -29.58 118 -17 118 C-17 112.39 -17 106.78 -17 101 C-18.32 100.34 -19.64 99.68 -21 99 C-21.46875 95.8828125 -21.46875 95.8828125 -21.5 92.125 C-21.40779335 86.93635612 -21.40779335 86.93635612 -23.96875 82.6796875 C-24.6390625 82.12539062 -25.309375 81.57109375 -26 81 C-27.45147903 78.09704195 -27.37239025 76.22738221 -27 73 C-24.8125 69.6875 -24.8125 69.6875 -22 67 C-19.525 66.505 -19.525 66.505 -17 66 C-16.67 60.06 -16.34 54.12 -16 48 C-28.54 48 -41.08 48 -54 48 C-54 47.67 -54 47.34 -54 47 C-51.69 47 -49.38 47 -47 47 C-46.99589111 46.17387207 -46.99178223 45.34774414 -46.98754883 44.49658203 C-46.96031754 41.3835014 -46.91097161 38.27171457 -46.84741211 35.15917969 C-46.81325235 33.16883601 -46.80380856 31.17811696 -46.79492188 29.1875 C-46.56300035 18.98295307 -44.58405701 11.7563068 -37.6875 4.125 C-26.93268435 -5.8532097 -12.83242706 -6.37454981 0 0 Z " fill="#E8A22E" transform="translate(228,119)"/>
<path d="M0 0 C0.7805072 0.02032288 1.5610144 0.04064575 2.36517334 0.06158447 C3.19760559 0.10410339 4.03003784 0.14662231 4.88769531 0.19042969 C6.17767426 0.23221344 6.17767426 0.23221344 7.49371338 0.27484131 C10.23550906 0.36807594 12.97519147 0.48980506 15.71582031 0.61230469 C17.57642928 0.68059282 19.4371075 0.74702114 21.29785156 0.81152344 C25.85492514 0.97356147 30.41031215 1.16115895 34.96582031 1.36230469 C34.99272875 3.9873727 35.01261436 6.61216642 35.02832031 9.23730469 C35.03669922 9.98367187 35.04507813 10.73003906 35.05371094 11.49902344 C35.07910156 17.13574219 35.07910156 17.13574219 33.96582031 19.36230469 C33.01707031 19.81605469 32.06832031 20.26980469 31.09082031 20.73730469 C27.92741388 22.38227603 26.5775316 23.22842163 24.96582031 26.36230469 C24.55846924 30.27287501 24.73531358 33.07524214 26.96582031 36.36230469 C27.95582031 37.02230469 28.94582031 37.68230469 29.96582031 38.36230469 C30.42652834 41.97709073 30.47002406 45.53325724 30.55957031 49.17480469 C30.69363281 50.22667969 30.82769531 51.27855469 30.96582031 52.36230469 C31.95582031 53.02230469 32.94582031 53.68230469 33.96582031 54.36230469 C34.18667671 57.31294617 34.24643021 60.04598699 34.15332031 62.98730469 C34.13301758 64.19 34.13301758 64.19 34.11230469 65.41699219 C34.07691083 67.39904847 34.02310265 69.3807602 33.96582031 71.36230469 C28.62733359 71.46125012 23.28938162 71.53380883 17.95019531 71.58203125 C16.13434552 71.6021353 14.31856037 71.62942304 12.50292969 71.6640625 C9.89143926 71.71263508 7.28080533 71.73528495 4.66894531 71.75292969 C3.85838684 71.77357483 3.04782837 71.79421997 2.21270752 71.81549072 C-1.19639765 71.81684508 -3.46146543 71.78717894 -6.24822998 69.7197876 C-8.54174914 66.69230468 -8.54081673 64.96425775 -8.55175781 61.18847656 C-8.56436646 59.94038208 -8.5769751 58.6922876 -8.58996582 57.40637207 C-8.58280597 56.04792719 -8.57460197 54.68948747 -8.56542969 53.33105469 C-8.56812538 51.93387583 -8.57200845 50.53669881 -8.57702637 49.13952637 C-8.58291795 46.21409204 -8.57437032 43.2891469 -8.55566406 40.36376953 C-8.53287363 36.61749077 -8.54599869 32.87235824 -8.56995392 29.12612152 C-8.58442174 26.24183547 -8.57980164 23.3578203 -8.56944275 20.473526 C-8.56677813 19.09245162 -8.57003599 17.71135248 -8.57936096 16.33030701 C-8.58954057 14.39892052 -8.57126856 12.46744758 -8.55175781 10.53613281 C-8.54857544 9.43789185 -8.54539307 8.33965088 -8.54211426 7.20812988 C-7.67404672 2.34457338 -4.9667679 -0.19351044 0 0 Z " fill="#FEC61D" transform="translate(177.0341796875,165.6376953125)"/>
<path d="M0 0 C7.07135121 3.9513627 13.68525743 10.30933224 16.17578125 18.2578125 C17.91734159 26.95047018 17.30738897 35.8816266 12.625 43.5 C6.47729498 51.58640038 -0.34362422 55.44622618 -10.3203125 56.94140625 C-19.31911271 57.49355195 -26.77122254 54.46708483 -33.578125 48.6015625 C-40.06977702 41.70077274 -42.34579444 33.87498377 -42.375 24.5 C-41.76295398 16.59662314 -38.23448885 10.09331721 -32.44921875 4.70703125 C-22.55430907 -3.07440257 -11.72510246 -5.39913752 0 0 Z " fill="#FA7E50" transform="translate(155.375,81.5)"/>
<path d="M0 0 C0.33 0 0.66 0 1 0 C1.02716824 2.54173977 1.04691969 5.08318415 1.0625 7.625 C1.07087891 8.33785156 1.07925781 9.05070313 1.08789062 9.78515625 C1.10710296 13.97344438 0.8267327 17.8728462 0 22 C-0.71027344 22.12117188 -1.42054688 22.24234375 -2.15234375 22.3671875 C-3.07144531 22.53476563 -3.99054688 22.70234375 -4.9375 22.875 C-5.85402344 23.03742188 -6.77054688 23.19984375 -7.71484375 23.3671875 C-8.46894531 23.57601562 -9.22304687 23.78484375 -10 24 C-11.33330029 26.66660057 -11.16159459 28.74888743 -11.20532227 31.73486328 C-11.22526749 32.93595734 -11.24521271 34.13705139 -11.26576233 35.37454224 C-11.28247482 36.67664642 -11.29918732 37.97875061 -11.31640625 39.3203125 C-11.33697625 40.66267538 -11.35797273 42.00503179 -11.37937927 43.34738159 C-11.43459531 46.88188438 -11.48400658 50.41644557 -11.53222656 53.9510498 C-11.58244504 57.55726322 -11.63812929 61.16339172 -11.69335938 64.76953125 C-11.80093517 71.84628049 -11.90238142 78.92310584 -12 86 C-12.33 86 -12.66 86 -13 86 C-13 80.06 -13 74.12 -13 68 C-21.25 68 -29.5 68 -38 68 C-38 46.55 -38 25.1 -38 3 C-22.58329777 3 -12.72958078 6.98507877 0 15 C0 10.05 0 5.1 0 0 Z " fill="#D05934" transform="translate(181,144)"/>
<path d="M0 0 C4.53851699 3.91962831 7.8422977 8.0483667 9 14 C9.08026745 15.87877624 9.10765872 17.7601615 9.09765625 19.640625 C9.09515869 20.60516602 9.09266113 21.56970703 9.09008789 22.56347656 C9.08098389 23.7800293 9.07187988 24.99658203 9.0625 26.25 C9.041875 30.1275 9.02125 34.005 9 38 C-4.53 38 -18.06 38 -32 38 C-32.103125 34.08125 -32.20625 30.1625 -32.3125 26.125 C-32.35802002 24.91086426 -32.40354004 23.69672852 -32.45043945 22.44580078 C-32.54512791 14.9379225 -31.38554923 9.20787216 -27 3 C-19.39547055 -4.37665033 -9.10413711 -5.07730723 0 0 Z " fill="#161448" transform="translate(223,128)"/>
<path d="M0 0 C9.7472979 -0.8489582 16.87061515 0.37013318 25 6 C31.00692926 11.47345419 35.55766431 17.64846335 36.23828125 25.8828125 C36.47253488 36.11599723 34.9202245 43.19150028 27.9375 50.875 C20.30341733 57.92280508 12.41081374 59.50254483 2.23828125 59.140625 C1.49964844 59.09421875 0.76101562 59.0478125 0 59 C0 58.67 0 58.34 0 58 C2.31 58 4.62 58 7 58 C7 39.19 7 20.38 7 1 C4.69 1 2.38 1 0 1 C0 0.67 0 0.34 0 0 Z " fill="#D15832" transform="translate(136,79)"/>
<path d="M0 0 C0.66 0 1.32 0 2 0 C2.917924 1.39388459 3.83058765 2.79154905 4.71484375 4.20703125 C6.68983618 6.96241582 9.13709768 9.1783012 11.609375 11.484375 C13 13 13 13 13 15 C13.5775 15.2475 14.155 15.495 14.75 15.75 C17.32939979 17.18299988 19.06121592 18.78424676 21 21 C21 21.66 21 22.32 21 23 C21.598125 23.2475 22.19625 23.495 22.8125 23.75 C25.29482087 25.16846907 26.36328035 26.69264738 28 29 C27.20335937 29.70962891 27.20335937 29.70962891 26.390625 30.43359375 C25.33101562 31.42552734 25.33101562 31.42552734 24.25 32.4375 C23.20585937 33.39462891 23.20585937 33.39462891 22.140625 34.37109375 C16.4488276 41.3612026 15.30834376 48.77440181 14.75 57.5625 C14.67265625 58.57119141 14.5953125 59.57988281 14.515625 60.61914062 C14.32911464 63.07874593 14.15755268 65.53839952 14 68 C10.28938649 66.5873985 6.8266951 64.90639676 3.3125 63.0625 C-3.42906805 59.69989749 -9.5947785 57.2038911 -17.15625 56.66015625 C-28.91563996 55.78800256 -28.91563996 55.78800256 -32.47265625 53.203125 C-34.13023616 51.20674305 -35.54728049 49.14616265 -37 47 C-39.72033273 45.04339949 -39.72033273 45.04339949 -42 44 C-41.67 43.01 -41.34 42.02 -41 41 C-40.41734375 41.3609375 -39.8346875 41.721875 -39.234375 42.09375 C-31.40506376 46.52543561 -24.85468417 47.25848351 -16.07421875 45.37109375 C-8.22822785 42.95109932 -2.86624011 38.75000131 1.37890625 31.71484375 C4.67663799 24.64827574 5.53460915 16.30641961 3.3515625 8.7578125 C2.64796977 7.13467283 1.8307804 5.56186716 1 4 C0.62691369 2.67723944 0.26953585 1.34767923 0 0 Z " fill="#141248" transform="translate(167,91)"/>
<path d="M0 0 C6.12182203 3.76128896 10.89151364 10.14741934 13 17 C13.77573122 20.99878061 14.11953922 24.76570562 14.09765625 28.8359375 C14.09443359 29.89941406 14.09121094 30.96289062 14.08789062 32.05859375 C14.07532227 33.70021484 14.07532227 33.70021484 14.0625 35.375 C14.05798828 36.49261719 14.05347656 37.61023438 14.04882812 38.76171875 C14.03709244 41.50786804 14.02067363 44.25390586 14 47 C10.7 47 7.4 47 4 47 C3.94392578 44.54046875 3.94392578 44.54046875 3.88671875 42.03125 C3.82103023 39.85414489 3.7545839 37.67706256 3.6875 35.5 C3.65366211 33.88351563 3.65366211 33.88351563 3.61914062 32.234375 C3.36182814 24.56178458 2.69187968 18.3648496 -2.25 12.1875 C-7.4375705 8.06102347 -12.24922982 6.45872838 -18.796875 6.71484375 C-24.93104344 7.50880527 -29.14684011 10.29058236 -33 15 C-36.59503056 21.44292764 -36.54292596 27.67162167 -36.6875 34.9375 C-36.72166016 36.09830078 -36.75582031 37.25910156 -36.79101562 38.45507812 C-36.87306285 41.30328882 -36.94235536 44.15120839 -37 47 C-39.97 47 -42.94 47 -46 47 C-46.12509012 43.05331061 -46.21502442 39.10741343 -46.2746582 35.15917969 C-46.31169623 33.16820647 -46.37528228 31.17778347 -46.43945312 29.1875 C-46.56991224 18.85513829 -44.64832606 11.83682622 -37.6875 4.125 C-26.93268435 -5.8532097 -12.83242706 -6.37454981 0 0 Z " fill="#CBCCD1" transform="translate(228,119)"/>
<path d="M0 0 C0 2.64 0 5.28 0 8 C-0.66386719 8.23074219 -1.32773438 8.46148437 -2.01171875 8.69921875 C-9.86597462 11.60013369 -14.34344912 14.76719999 -18.13525391 22.49902344 C-19.86630721 27.50549154 -19.68387277 32.7519027 -19.75 38 C-19.77964844 39.15628906 -19.80929688 40.31257813 -19.83984375 41.50390625 C-19.91006109 44.33600562 -19.96299632 47.16730473 -20 50 C-22.97 50 -25.94 50 -29 50 C-29.12509012 46.05331061 -29.21502442 42.10741343 -29.2746582 38.15917969 C-29.31169623 36.16820647 -29.37528228 34.17778347 -29.43945312 32.1875 C-29.56986222 21.85909978 -27.65122853 14.83192261 -20.6875 7.125 C-14.29061646 1.28076299 -8.62922981 -0.71910248 0 0 Z " fill="#F7F8FA" transform="translate(211,116)"/>
<path d="M0 0 C3.33411623 2.339999 4.82299226 5.03629118 5.5625 9.0625 C5 12 5 12 3.0078125 14.26953125 C0.56951024 17.58543257 0.44822183 19.55334501 0.3125 23.625 C0.06501951 29.80494148 0.06501951 29.80494148 -1 33 C-1.66 33 -2.32 33 -3 33 C-3.33 33.99 -3.66 34.98 -4 36 C-8.14669799 34.4119029 -8.14669799 34.4119029 -10 32 C-10.53383537 28.39769629 -10.62469867 24.95259058 -10.6015625 21.3125 C-11.0717298 17.40365811 -12.0361839 16.45281332 -15 14 C-16.45147903 11.09704195 -16.37239025 9.22738221 -16 6 C-11.79057464 -0.80104918 -7.50039958 -2.09493919 0 0 Z " fill="#ED992A" transform="translate(217,186)"/>
<path d="M0 0 C2.57875055 2.14465694 3.87733073 3.33335162 4.49447632 6.6872406 C4.49162628 7.71140579 4.48877625 8.73557098 4.48583984 9.79077148 C4.49506973 11.53794716 4.49506973 11.53794716 4.50448608 13.32041931 C4.49011505 14.57464188 4.47574402 15.82886444 4.4609375 17.12109375 C4.46002106 18.41314224 4.45910461 19.70519073 4.4581604 21.03639221 C4.45503572 23.7693539 4.43849976 26.50178975 4.41162109 29.23461914 C4.37767498 32.7294428 4.36999181 36.22368828 4.37151146 39.71865749 C4.37083518 43.06121299 4.35314581 46.40358082 4.3359375 49.74609375 C4.33371185 50.99829208 4.33148621 52.25049042 4.32919312 53.54063416 C4.31643341 54.7085701 4.30367371 55.87650604 4.29052734 57.07983398 C4.27909195 58.61727516 4.27909195 58.61727516 4.26742554 60.18577576 C3.89076755 64.14949611 3.06894911 66.85093158 0.3336792 69.79121399 C-2.87451824 71.45297803 -5.81262126 71.39594396 -9.33886719 71.34057617 C-10.43702003 71.34123329 -10.43702003 71.34123329 -11.55735779 71.34190369 C-13.97080399 71.33981808 -16.38355056 71.31649855 -18.796875 71.29296875 C-20.47267273 71.28737197 -22.14847538 71.28310226 -23.82427979 71.28010559 C-28.23026127 71.26866325 -32.63594504 71.23920143 -37.04180908 71.20599365 C-41.5395505 71.17527955 -46.03734013 71.16159739 -50.53515625 71.14648438 C-59.35690148 71.11433107 -68.17842596 71.06314215 -77 71 C-77 70.67 -77 70.34 -77 70 C-75.89487061 69.97494385 -74.78974121 69.9498877 -73.65112305 69.92407227 C-69.55285956 69.82993491 -65.45476306 69.72972959 -61.35668945 69.62768555 C-59.58264063 69.58436066 -57.80855077 69.54268381 -56.03442383 69.50268555 C-53.48506295 69.4449238 -50.9359082 69.38124638 -48.38671875 69.31640625 C-47.59287277 69.29969376 -46.79902679 69.28298126 -45.98112488 69.26576233 C-42.75316923 69.17882282 -40.08248901 69.02749634 -37 68 C-34.60575718 67.8948719 -32.2089616 67.84477083 -29.8125 67.82421875 C-28.37758933 67.80103068 -26.94269343 67.77691376 -25.5078125 67.75195312 C-23.2495723 67.71677575 -20.99187994 67.6874519 -18.73339844 67.67407227 C-16.55076384 67.65861788 -14.3697162 67.61844479 -12.1875 67.57421875 C-10.22876953 67.55234497 -10.22876953 67.55234497 -8.23046875 67.5300293 C-4.94525194 67.31593142 -4.94525194 67.31593142 -3.125 65.10473633 C-1.50496219 62.08124695 -1.50496219 62.08124695 0 59 C0.66 59 1.32 59 2 59 C1.88240593 51.24028485 1.7575742 43.48071044 1.62768555 35.72119141 C1.58434651 33.08091885 1.5426707 30.44061845 1.50268555 27.80029297 C1.44495834 24.00740158 1.38127051 20.21465021 1.31640625 16.421875 C1.29969376 15.23946228 1.28298126 14.05704956 1.26576233 12.83880615 C1.2358445 11.1875473 1.2358445 11.1875473 1.20532227 9.50292969 C1.18200584 8.05064972 1.18200584 8.05064972 1.15821838 6.56903076 C1.01480234 4.2403493 0.65646028 2.23155783 0 0 Z " fill="#C48F43" transform="translate(251,167)"/>
<path d="M0 0 C7.30188679 2.43396226 7.30188679 2.43396226 10 7 C10.5 10 10.5 10 10 13 C9.34386719 13.75023437 8.68773437 14.50046875 8.01171875 15.2734375 C5.56691513 18.58697717 5.44827648 20.55170571 5.3125 24.625 C5.06501951 30.80494148 5.06501951 30.80494148 4 34 C2.02 34.495 2.02 34.495 0 35 C0 23.45 0 11.9 0 0 Z " fill="#F75917" transform="translate(212,185)"/>
<path d="M0 0 C0.6084375 0.3609375 1.216875 0.721875 1.84375 1.09375 C10.3487594 5.59640204 17.65280093 5.52775904 27 5 C25 7 25 7 22.4375 7.5 C21.633125 7.665 20.82875 7.83 20 8 C19.67 8.66 19.34 9.32 19 10 C19.99 10 20.98 10 22 10 C22 10.99 22 11.98 22 13 C22.85271484 13.07347656 22.85271484 13.07347656 23.72265625 13.1484375 C28.71081129 13.63143081 33.22599578 14.47638163 38 16 C38 16.66 38 17.32 38 18 C36.87722656 17.79503906 35.75445312 17.59007812 34.59765625 17.37890625 C33.87626465 17.24911377 33.15487305 17.11932129 32.41162109 16.9855957 C30.83969675 16.70247942 29.26840467 16.41583094 27.69775391 16.12573242 C23.7193604 15.40792972 19.92492745 14.89731523 15.875 14.8125 C10.95008602 13.77985675 9.54640555 11.82029957 6.57421875 7.93359375 C4.69569194 5.62622211 2.55512524 4.47113271 0 3 C0 2.01 0 1.02 0 0 Z " fill="#241440" transform="translate(125,132)"/>
<path d="M0 0 C0.66 0.66 1.32 1.32 2 2 C3.31747324 2.69748583 4.64914193 3.36959957 6 4 C4.93458984 4.18175781 4.93458984 4.18175781 3.84765625 4.3671875 C2.92855469 4.53476563 2.00945312 4.70234375 1.0625 4.875 C0.14597656 5.03742188 -0.77054688 5.19984375 -1.71484375 5.3671875 C-2.46894531 5.57601562 -3.22304687 5.78484375 -4 6 C-5.33330029 8.66660057 -5.16159459 10.74888743 -5.20532227 13.73486328 C-5.22526749 14.93595734 -5.24521271 16.13705139 -5.26576233 17.37454224 C-5.28247482 18.67664642 -5.29918732 19.97875061 -5.31640625 21.3203125 C-5.33697625 22.66267538 -5.35797273 24.00503179 -5.37937927 25.34738159 C-5.43459531 28.88188438 -5.48400658 32.41644557 -5.53222656 35.9510498 C-5.58244504 39.55726322 -5.63812929 43.16339172 -5.69335938 46.76953125 C-5.80093517 53.84628049 -5.90238142 60.92310584 -6 68 C-6.33 68 -6.66 68 -7 68 C-7.78912724 55.27761725 -8.21311019 42.58927832 -8.24023438 29.84204102 C-8.25017652 27.01225836 -8.28146122 24.18313645 -8.3125 21.35351562 C-8.31901181 19.53906671 -8.32426937 17.72461275 -8.328125 15.91015625 C-8.3404718 15.0717067 -8.3528186 14.23325714 -8.36553955 13.36940002 C-8.34340232 7.62140944 -8.34340232 7.62140944 -6.64746094 4.55249023 C-4.61524334 2.63742329 -2.45055746 1.32462565 0 0 Z " fill="#CA7021" transform="translate(175,162)"/>
<path d="M0 0 C0.66 0 1.32 0 2 0 C2 19.8 2 39.6 2 60 C0.515 60.495 0.515 60.495 -1 61 C-0.67 40.87 -0.34 20.74 0 0 Z " fill="#241324" transform="translate(255,172)"/>
<path d="M0 0 C0 3 0 3 -1 5 C-27.73 5 -54.46 5 -82 5 C-82.33 3.68 -82.66 2.36 -83 1 C-82.49005493 1.32433517 -81.98010986 1.64867035 -81.45471191 1.98283386 C-78.12651554 3.3619483 -75.32598697 3.26200554 -71.72460938 3.2746582 C-70.99893265 3.27976913 -70.27325592 3.28488007 -69.52558899 3.29014587 C-67.13155832 3.30402376 -64.73781606 3.30308673 -62.34375 3.30078125 C-60.67752984 3.30466872 -59.01131066 3.3090035 -57.34509277 3.31376648 C-53.85486639 3.32122446 -50.36474117 3.32094015 -46.87451172 3.31567383 C-42.40205849 3.30987483 -37.93001881 3.32682242 -33.45763397 3.3500185 C-30.01753316 3.36474887 -26.57753216 3.36562859 -23.1374054 3.36250877 C-21.48837972 3.36302218 -19.83934848 3.36826351 -18.19035339 3.37832069 C-15.88509199 3.39065675 -13.58063907 3.38391148 -11.27539062 3.37231445 C-9.96397095 3.37294388 -8.65255127 3.3735733 -7.3013916 3.3742218 C-3.85266476 2.98329915 -2.47323729 2.36351047 0 0 Z " fill="#231525" transform="translate(253,234)"/>
<path d="M0 0 C3.44306157 2.99396658 3.8686297 5.41063467 4.23828125 9.8828125 C4.43658539 18.5455723 3.73903091 25.62590468 -2.046875 32.39453125 C-3.97303158 34.34459403 -5.93158237 36.20268565 -8 38 C-8.495 36.515 -8.495 36.515 -9 35 C-8.54625 34.5875 -8.0925 34.175 -7.625 33.75 C-5.94049626 31.93591905 -5.00734029 30.24714373 -4 28 C-3.01 28.33 -2.02 28.66 -1 29 C-1 27.68 -1 26.36 -1 25 C-0.34 25 0.32 25 1 25 C1.02718316 22.14576808 1.04692705 19.29179985 1.0625 16.4375 C1.07087891 15.63763672 1.07925781 14.83777344 1.08789062 14.01367188 C1.10742247 9.22836896 0.80437018 4.71854949 0 0 Z " fill="#B55746" transform="translate(168,95)"/>
<path d="M0 0 C0.99 0 1.98 0 3 0 C3.02690844 2.62506802 3.04679404 5.24986173 3.0625 7.875 C3.07087891 8.62136719 3.07925781 9.36773437 3.08789062 10.13671875 C3.11328125 15.7734375 3.11328125 15.7734375 2 18 C0.576875 18.680625 0.576875 18.680625 -0.875 19.375 C-4.07677452 21.03992275 -5.33970637 21.8541805 -7 25 C-7.72481084 28.65274469 -7.72481084 28.65274469 -8 32 C-8.33 32 -8.66 32 -9 32 C-9.62267777 24.06085842 -9.62267777 24.06085842 -7.3125 20.125 C-5 18 -5 18 -2.375 16.84765625 C0.40666323 15.12771781 0.40666323 15.12771781 0.48828125 11.42578125 C0.45514248 10.05383624 0.39563595 8.6823247 0.3125 7.3125 C0.28994141 6.61060547 0.26738281 5.90871094 0.24414062 5.18554688 C0.18531647 3.4561167 0.09563389 1.72778562 0 0 Z " fill="#FBBF26" transform="translate(209,167)"/>
<path d="M0 0 C0.66 0.33 1.32 0.66 2 1 C2.75189236 25.00485964 2.75189236 25.00485964 -5.4375 33.7265625 C-7.52804095 35.43035338 -9.32223071 35.92124208 -12 36 C-11.61328125 35.56429687 -11.2265625 35.12859375 -10.828125 34.6796875 C-3.40490418 26.19075676 0.37542384 19.49038983 0.125 8.125 C0.11597656 7.34125 0.10695312 6.5575 0.09765625 5.75 C0.07428063 3.83319945 0.03841653 1.91655809 0 0 Z " fill="#2F1234" transform="translate(171,98)"/>
<path d="M0 0 C10.60892303 -0.92400297 18.75851888 0.80071742 27.08203125 7.734375 C28.75 9.375 28.75 9.375 31 12 C30.67 12.66 30.34 13.32 30 14 C29.57589844 13.52949219 29.15179688 13.05898437 28.71484375 12.57421875 C24.7464921 8.36166084 21.58883969 5.6559525 16 4 C13.16926919 4.19513752 13.16926919 4.19513752 11 5 C11 4.34 11 3.68 11 3 C7.37 2.34 3.74 1.68 0 1 C0 0.67 0 0.34 0 0 Z " fill="#AF5D53" transform="translate(136,79)"/>
<path d="M0 0 C-1 2 -1 2 -3.5 4.0625 C-6.79410617 7.93307475 -6.88150178 11.05539243 -7 16 C-6.01 16.33 -5.02 16.66 -4 17 C-4.99 17.33 -5.98 17.66 -7 18 C-9.68456699 14.19686343 -10.76026048 11.65659544 -10 7 C-7.41705401 2.88641934 -5.05397148 0 0 0 Z " fill="#EBA923" transform="translate(211,185)"/>
<path d="M0 0 C2.86724686 0.57344937 3.8614515 0.8614515 6 3 C6.1953125 5.8203125 6.1953125 5.8203125 6.125 9.125 C6.10695312 10.22070312 6.08890625 11.31640625 6.0703125 12.4453125 C6.04710937 13.28835937 6.02390625 14.13140625 6 15 C5.34 15 4.68 15 4 15 C4 15.99 4 16.98 4 18 C3.34 18 2.68 18 2 18 C1.67 21.96 1.34 25.92 1 30 C0.67 30 0.34 30 0 30 C-0.10864945 27.93867858 -0.18588321 25.87568679 -0.25 23.8125 C-0.29640625 22.66394531 -0.3428125 21.51539063 -0.390625 20.33203125 C0.07493605 16.3607955 1.3832233 14.9311956 4 12 C4.7092595 7.83310042 4.17624741 6.29741751 2 2.625 C1.34 1.75875 0.68 0.8925 0 0 Z " fill="#F79531" transform="translate(217,186)"/>
<path d="M0 0 C-4.42442592 3.71080883 -9.17403931 6.84577733 -14 10 C-14 8.02 -14 6.04 -14 4 C-12.35 3.67 -10.7 3.34 -9 3 C-9 2.34 -9 1.68 -9 1 C-5.8035914 -0.06546953 -3.34252724 -0.07427838 0 0 Z " fill="#313B72" transform="translate(112,153)"/>
<path d="M0 0 C0.99 0.33 1.98 0.66 3 1 C2.649375 2.19625 2.29875 3.3925 1.9375 4.625 C0.45740576 11.09394337 1.31201666 17.46415824 2 24 C1.34 24 0.68 24 0 24 C-1.83492674 18.60990271 -2.52618714 13.70240021 -2 8 C-1.67 7.67 -1.34 7.34 -1 7 C-0.63239269 4.67182036 -0.29758419 2.3381615 0 0 Z " fill="#4B3C63" transform="translate(113,96)"/>
<path d="M0 0 C0 0.33 0 0.66 0 1 C-1.01578125 1.03738281 -2.0315625 1.07476562 -3.078125 1.11328125 C-11.71806344 1.50169954 -19.66721696 2.49069602 -28 5 C-26.55376413 1.26262205 -26.55376413 1.26262205 -24.1796875 0.13671875 C-16.03797826 -1.45022458 -8.19716789 -0.75259358 0 0 Z " fill="#4E3A5B" transform="translate(146,146)"/>
<path d="M0 0 C-0.63808594 0.32613281 -1.27617187 0.65226562 -1.93359375 0.98828125 C-2.75988281 1.42527344 -3.58617187 1.86226563 -4.4375 2.3125 C-5.26121094 2.74175781 -6.08492187 3.17101562 -6.93359375 3.61328125 C-9.30647644 4.90020887 -9.30647644 4.90020887 -10 8 C-12.06640625 9.60546875 -12.06640625 9.60546875 -14.5625 11.1875 C-15.38878906 11.71730469 -16.21507813 12.24710938 -17.06640625 12.79296875 C-17.70449219 13.19128906 -18.34257813 13.58960937 -19 14 C-16.89635023 7.78515651 -12.62622184 4.07011499 -6.98828125 0.8515625 C-2.44742607 -1.22371303 -2.44742607 -1.22371303 0 0 Z " fill="#D07F6F" transform="translate(136,81)"/>
<path d="M0 0 C0.33 0 0.66 0 1 0 C1 5.61 1 11.22 1 17 C3.31 17.33 5.62 17.66 8 18 C8.99 18.66 9.98 19.32 11 20 C10.67 20.66 10.34 21.32 10 22 C9.67 21.67 9.34 21.34 9 21 C6.03 20.67 3.06 20.34 0 20 C0 13.4 0 6.8 0 0 Z " fill="#281D3A" transform="translate(242,146)"/>
<path d="M0 0 C2 2 2 2 3 5 C0.69 5.66 -1.62 6.32 -4 7 C-4.33 8.32 -4.66 9.64 -5 11 C-5.99 11 -6.98 11 -8 11 C-8 11.66 -8 12.32 -8 13 C-8.66 12.67 -9.32 12.34 -10 12 C-8.89847594 10.56047403 -7.7936696 9.12345929 -6.6875 7.6875 C-6.07261719 6.88699219 -5.45773438 6.08648437 -4.82421875 5.26171875 C-3.30083693 3.37298626 -1.75565593 1.66922364 0 0 Z " fill="#E88163" transform="translate(96,165)"/>
<path d="M0 0 C0.625 1.8125 0.625 1.8125 1 4 C0.01 5.485 0.01 5.485 -1 7 C-1.66 7 -2.32 7 -3 7 C-3.33 8.98 -3.66 10.96 -4 13 C-4.66 13 -5.32 13 -6 13 C-6.103125 13.639375 -6.20625 14.27875 -6.3125 14.9375 C-6.539375 15.618125 -6.76625 16.29875 -7 17 C-7.99 17.33 -8.98 17.66 -10 18 C-8.47146065 13.72813475 -6.28490519 10.00673137 -3.875 6.1875 C-3.50246094 5.59001953 -3.12992188 4.99253906 -2.74609375 4.37695312 C-1.8342952 2.91573749 -0.91764024 1.45755415 0 0 Z " fill="#2C3A71" transform="translate(35,70)"/>
<path d="M0 0 C0 3.76596445 -0.79875182 4.94665575 -3 8 C-9.11320755 14 -9.11320755 14 -12 14 C-12 14.66 -12 15.32 -12 16 C-12.66 15.67 -13.32 15.34 -14 15 C-9.53648711 9.77674023 -4.9255107 4.79077028 0 0 Z " fill="#2A3769" transform="translate(57,46)"/>
<path d="M0 0 C1.485 0.99 1.485 0.99 3 2 C3.29296875 5.0390625 3.29296875 5.0390625 3.1875 8.625 C3.16042969 9.81351563 3.13335937 11.00203125 3.10546875 12.2265625 C3.07066406 13.14179688 3.03585938 14.05703125 3 15 C2.01 15 1.02 15 0 15 C0 10.05 0 5.1 0 0 Z " fill="#EBAB22" transform="translate(211,221)"/>
<path d="M0 0 C0.66 2.31 1.32 4.62 2 7 C-1.44360632 7 -2.74795392 6.20408468 -5.6875 4.5 C-6.49574219 4.0359375 -7.30398437 3.571875 -8.13671875 3.09375 C-8.75160156 2.7328125 -9.36648437 2.371875 -10 2 C-9.401875 1.855625 -8.80375 1.71125 -8.1875 1.5625 C-2.11111111 0 -2.11111111 0 0 0 Z " fill="#334479" transform="translate(230,114)"/>
<path d="M0 0 C0 0.66 0 1.32 0 2 C0.66 2.66 1.32 3.32 2 4 C-0.375 5.5625 -0.375 5.5625 -3 7 C-3.66 6.67 -4.32 6.34 -5 6 C-5 5.34 -5 4.68 -5 4 C-5.99 3.67 -6.98 3.34 -8 3 C-4.93882432 0.37613513 -4.26826873 0 0 0 Z " fill="#31386E" transform="translate(117,146)"/>
<path d="M0 0 C3 1 3 1 4 3 C4.06950541 4.54023996 4.08452357 6.08334988 4.0625 7.625 C4.05347656 8.44226563 4.04445313 9.25953125 4.03515625 10.1015625 C4.02355469 10.72804687 4.01195312 11.35453125 4 12 C3.34 12 2.68 12 2 12 C0.86235649 7.73383684 0 4.43513689 0 0 Z " fill="#2A396B" transform="translate(8,195)"/>
<path d="M0 0 C-1.32 0.33 -2.64 0.66 -4 1 C-4.33 2.65 -4.66 4.3 -5 6 C-7.64 5.67 -10.28 5.34 -13 5 C-4.9 -1.75 -4.9 -1.75 0 0 Z " fill="#DE7C65" transform="translate(120,152)"/>
<path d="M0 0 C-0.33 1.32 -0.66 2.64 -1 4 C-1.99 3.67 -2.98 3.34 -4 3 C-4.66 4.65 -5.32 6.3 -6 8 C-7.98 8 -9.96 8 -12 8 C-4.57142857 0 -4.57142857 0 0 0 Z " fill="#2A3669" transform="translate(81,29)"/>
<path d="M0 0 C0.99 0.33 1.98 0.66 3 1 C3 5.29 3 9.58 3 14 C1.18751015 10.3750203 0.68111085 8.62740416 0.375 4.75 C0.30023438 3.85796875 0.22546875 2.9659375 0.1484375 2.046875 C0.09945312 1.37140625 0.05046875 0.6959375 0 0 Z " fill="#F8BC27" transform="translate(204,203)"/>
<path d="M0 0 C3.18005028 3.88672813 6.10554447 7.89952133 9 12 C7.65686601 11.35330586 6.32608822 10.68096422 5 10 C4.0925 9.608125 3.185 9.21625 2.25 8.8125 C1.5075 8.214375 0.765 7.61625 0 7 C-0.3125 3.3125 -0.3125 3.3125 0 0 Z " fill="#483A62" transform="translate(115,120)"/>
<path d="M0 0 C0.33 1.32 0.66 2.64 1 4 C1.94875 3.938125 2.8975 3.87625 3.875 3.8125 C4.90625 3.874375 5.9375 3.93625 7 4 C7.99 5.485 7.99 5.485 9 7 C6.03 7 3.06 7 0 7 C0 4.69 0 2.38 0 0 Z " fill="#FEF4D5" transform="translate(182,159)"/>
<path d="M0 0 C1.485 0.99 1.485 0.99 3 2 C3 2.66 3 3.32 3 4 C3.99 4.33 4.98 4.66 6 5 C5.34 7.64 4.68 10.28 4 13 C3.67 13 3.34 13 3 13 C1.90154282 8.67940177 0.82187261 4.38332057 0 0 Z " fill="#1D2051" transform="translate(238,129)"/>
<path d="M0 0 C0.66 0 1.32 0 2 0 C2 0.99 2 1.98 2 3 C2.66 3 3.32 3 4 3 C4.33 3.66 4.66 4.32 5 5 C5.99 5.33 6.98 5.66 8 6 C8.33 7.65 8.66 9.3 9 11 C7.87411986 10.04270084 6.7493285 9.08412105 5.625 8.125 C4.99851562 7.59132813 4.37203125 7.05765625 3.7265625 6.5078125 C2.44163349 5.38567993 1.20628025 4.20628025 0 3 C0 2.01 0 1.02 0 0 Z " fill="#2E3C6B" transform="translate(44,268)"/>
<path d="M0 0 C2.74792483 3.40219265 6 7.48464588 6 12 C5.01 12 4.02 12 3 12 C2.49166409 10.75336669 1.99368855 9.50250613 1.5 8.25 C1.2215625 7.55390625 0.943125 6.8578125 0.65625 6.140625 C0 4 0 4 0 0 Z " fill="#29376C" transform="translate(306,90)"/>
<path d="M0 0 C1.32 0.33 2.64 0.66 4 1 C2.54550599 2.0055761 1.08627557 3.00430435 -0.375 4 C-1.59316406 4.8353125 -1.59316406 4.8353125 -2.8359375 5.6875 C-5 7 -5 7 -7 7 C-7 6.01 -7 5.02 -7 4 C-6.01 4 -5.02 4 -4 4 C-4 3.34 -4 2.68 -4 2 C-2.68 2 -1.36 2 0 2 C0 1.34 0 0.68 0 0 Z " fill="#483B62" transform="translate(108,153)"/>
<path d="M0 0 C3.55780196 0.60990891 6.6828589 1.5783681 10 3 C9.67 3.66 9.34 4.32 9 5 C6.4375 5.625 6.4375 5.625 4 6 C3.71125 5.38125 3.4225 4.7625 3.125 4.125 C2.06279958 1.86674235 2.06279958 1.86674235 0 0 Z " fill="#283669" transform="translate(225,17)"/>
<path d="M0 0 C-0.33 1.32 -0.66 2.64 -1 4 C-3.64 4.33 -6.28 4.66 -9 5 C-6.45523312 2.20075644 -3.92372883 0 0 0 Z " fill="#2A3C6D" transform="translate(102,18)"/>
<path d="M0 0 C3.96 0.33 7.92 0.66 12 1 C10.515 2.485 10.515 2.485 9 4 C7.68 4 6.36 4 5 4 C4.67 3.34 4.34 2.68 4 2 C2.68 1.34 1.36 0.68 0 0 Z " fill="#253668" transform="translate(183,6)"/>
<path d="M0 0 C0.33 0 0.66 0 1 0 C1.39213671 4.44421603 0.25321274 7.18687075 -2 11 C-2.99 11.495 -2.99 11.495 -4 12 C-3.52309796 10.37433394 -3.04340334 8.74948689 -2.5625 7.125 C-2.29566406 6.22007812 -2.02882813 5.31515625 -1.75390625 4.3828125 C-1 2 -1 2 0 0 Z " fill="#CE796A" transform="translate(82,184)"/>
<path d="M0 0 C-4 2 -8 4 -12 6 C-12 4.68 -12 3.36 -12 2 C-10.56656 1.46809459 -9.12804633 0.94984742 -7.6875 0.4375 C-6.48673828 0.00244141 -6.48673828 0.00244141 -5.26171875 -0.44140625 C-3 -1 -3 -1 0 0 Z " fill="#553B59" transform="translate(136,80)"/>
<path d="M0 0 C-2.64 1.65 -5.28 3.3 -8 5 C-7.67 3.35 -7.34 1.7 -7 0 C-4 -1 -4 -1 0 0 Z " fill="#100F3C" transform="translate(265,291)"/>
<path d="M0 0 C0.66 0.33 1.32 0.66 2 1 C0.02 3.97 -1.96 6.94 -4 10 C-5.43088528 7.13822943 -4.59991697 5.06624227 -4 2 C-2.68 2 -1.36 2 0 2 C0 1.34 0 0.68 0 0 Z " fill="#563F5D" transform="translate(89,170)"/>
<path d="M0 0 C1.2065625 0.0309375 1.2065625 0.0309375 2.4375 0.0625 C0.79580472 2.08304804 -0.87161778 4.08293058 -2.5625 6.0625 C-2.8925 6.0625 -3.2225 6.0625 -3.5625 6.0625 C-3.605221 4.39638095 -3.60313832 2.72867115 -3.5625 1.0625 C-2.5625 0.0625 -2.5625 0.0625 0 0 Z " fill="#503F61" transform="translate(95.5625,162.9375)"/>
<path d="M0 0 C0.33 0.66 0.66 1.32 1 2 C-3.455 4.97 -3.455 4.97 -8 8 C-6 3 -6 3 -2.875 1.1875 C-1.92625 0.795625 -0.9775 0.40375 0 0 Z " fill="#E27C60" transform="translate(125,87)"/>
<path d="M0 0 C-3.18762365 2.12508244 -5.26512223 2.5020163 -9 3 C-9 2.01 -9 1.02 -9 0 C-5.52176885 -1.15941038 -3.54104422 -0.70820884 0 0 Z " fill="#0F0F39" transform="translate(220,315)"/>
<path d="M0 0 C4.83256305 0.41421969 6.82679218 2.46413986 10 6 C9.01 6 8.02 6 7 6 C7 5.34 7 4.68 7 4 C4.69 3.34 2.38 2.68 0 2 C0 1.34 0 0.68 0 0 Z " fill="#B8C1D5" transform="translate(224,119)"/>
<path d="M0 0 C0.66 0 1.32 0 2 0 C2.33 0.99 2.66 1.98 3 3 C2.01 3.99 1.02 4.98 0 6 C-0.99 5.67 -1.98 5.34 -3 5 C-1.625 2.5 -1.625 2.5 0 0 Z " fill="#C5C7CF" transform="translate(219,120)"/>
<path d="M0 0 C0.66 0 1.32 0 2 0 C3.38938077 1.96147874 4.7260411 3.96166576 6 6 C3.69 6 1.38 6 -1 6 C-0.34 5.34 0.32 4.68 1 4 C0.6814823 1.89179203 0.6814823 1.89179203 0 0 Z " fill="#25306C" transform="translate(181,317)"/>
<path d="M0 0 C0.33 1.32 0.66 2.64 1 4 C0.01 5.485 0.01 5.485 -1 7 C-1.66 7 -2.32 7 -3 7 C-3 7.66 -3 8.32 -3 9 C-3.66 8.67 -4.32 8.34 -5 8 C-3.35 5.36 -1.7 2.72 0 0 Z " fill="#273165" transform="translate(35,70)"/>
<path d="M0 0 C1.32 0 2.64 0 4 0 C4 0.66 4 1.32 4 2 C4.66 2 5.32 2 6 2 C5.67 2.99 5.34 3.98 5 5 C2.5 3.625 2.5 3.625 0 2 C0 1.34 0 0.68 0 0 Z " fill="#2C3B6A" transform="translate(80,299)"/>
<path d="M0 0 C0.99 0.99 1.98 1.98 3 3 C0.03 3 -2.94 3 -6 3 C-5 1 -5 1 -2.625 0.1875 C-1.75875 0.125625 -0.8925 0.06375 0 0 Z " fill="#2A356F" transform="translate(79,215)"/>
<path d="M0 0 C2.31 0 4.62 0 7 0 C5.515 1.98 5.515 1.98 4 4 C3.34 3.34 2.68 2.68 2 2 C1.01 2 0.02 2 -1 2 C-0.67 1.34 -0.34 0.68 0 0 Z " fill="#28366D" transform="translate(131,8)"/>
</svg>
